# xmcd CD database file
#
# Track frame offsets:
#	150
#	13985
#	26288
#	43781
#	58794
#	74741
#	92378
#	113863
#	131678
#	143996
#	157814
#	175975
#	188230
#
# Disc length: 2783 seconds
#
# Revision: 0
# Processed by: cddbd v1.5.1PL2 Copyright (c) Steve Scherf et al.
# Submitted via: CDex 1.51
#
DISCID=b50add0d
DTITLE=Kate Campbell - Blues And Lamentations
DYEAR=2005
DGENRE=Blues
TTITLE0=Miles Of Blues
TTITLE1=Pans Of Biscuits
TTITLE2=Genesis Blues
TTITLE3=Freedom Train
TTITLE4=New Blues
TTITLE5=Free World
TTITLE6=Wheels Within Wheels
TTITLE7=Shallow Grave
TTITLE8=Mining Camp Blues
TTITLE9=Fade To Blue
TTITLE10=Lay Back The Darkness
TTITLE11=Lord, Help The Poor And Needy
TTITLE12=Peace Comes Stealing Slow
EXTD=YEAR: 2005
EXTT0=
EXTT1=
EXTT2=
EXTT3=
EXTT4=
EXTT5=
EXTT6=
EXTT7=
EXTT8=
EXTT9=
EXTT10=
EXTT11=
EXTT12=
PLAYORDER=
